<svg width="85" height="39" xmlns="http://www.w3.org/2000/svg"><g fill="#FFF"><path d="M65.943 38.057h-46.98C8.49 38.057 0 29.566 0 19.094 0 8.623 8.49.132 18.962.132h47.123c10.33 0 18.82 8.49 18.82 18.962s-8.49 18.963-18.962 18.963zM18.963 3.528A15.521 15.521 0 0 0 3.395 19.094 15.521 15.521 0 0 0 18.962 34.66h47.123A15.521 15.521 0 0 0 81.65 19.094 15.521 15.521 0 0 0 66.085 3.528H18.962z"/><path d="M32.406 21.925c-.566 0-1.132-.283-1.415-.708-1.133-1.698-2.972-2.689-4.953-2.689-1.981 0-3.821.99-4.953 2.689-.566.849-1.557.99-2.406.425-.849-.567-.99-1.557-.424-2.406 1.698-2.547 4.67-4.104 7.783-4.104 3.113 0 6.085 1.557 7.783 4.104.566.849.283 1.84-.425 2.406-.283.141-.566.283-.99.283zM65.66 21.925c-.566 0-1.132-.283-1.415-.708-1.132-1.698-2.971-2.689-4.953-2.689-1.98 0-3.82.99-4.952 2.689-.566.849-1.557.99-2.406.425-.85-.567-.99-1.557-.425-2.406 1.699-2.547 4.67-4.104 7.783-4.104 3.114 0 6.085 1.557 7.783 4.104.567.849.283 1.84-.424 2.406-.425.141-.708.283-.99.283z"/></g></svg>